<?xml version="1.0" encoding="UTF-8" standalone="no"?>
<!DOCTYPE svg PUBLIC "-//W3C//DTD SVG 1.1//EN"
 "http://www.w3.org/Graphics/SVG/1.1/DTD/svg11.dtd">
<!-- Generated by graphviz version 2.43.0 (0)
 -->
<!-- Title: bpu Pages: 1 -->
<svg width="971pt" height="473pt"
 viewBox="0.00 0.00 970.50 473.00" xmlns="http://www.w3.org/2000/svg" xmlns:xlink="http://www.w3.org/1999/xlink">
<g id="graph0" class="graph" transform="scale(1 1) rotate(0) translate(4 469)">
<title>bpu</title>
<polygon fill="white" stroke="transparent" points="-4,4 -4,-469 966.5,-469 966.5,4 -4,4"/>
<g id="clust1" class="cluster">
<title>cluster_glob</title>
<path fill="none" stroke="#c98f3c" stroke-dasharray="5,2" d="M322,-149C322,-149 563,-149 563,-149 569,-149 575,-155 575,-161 575,-161 575,-209 575,-209 575,-215 569,-221 563,-221 563,-221 322,-221 322,-221 316,-221 310,-215 310,-209 310,-209 310,-161 310,-161 310,-155 316,-149 322,-149"/>
<text text-anchor="middle" x="442.5" y="-208.2" font-family="Helvetica,sans-Serif" font-size="11.00">全局预测器 (Gshare)</text>
</g>
<g id="clust2" class="cluster">
<title>cluster_loc</title>
<path fill="none" stroke="#c98f3c" stroke-dasharray="5,2" d="M20,-149C20,-149 131,-149 131,-149 137,-149 143,-155 143,-161 143,-161 143,-309 143,-309 143,-315 137,-321 131,-321 131,-321 20,-321 20,-321 14,-321 8,-315 8,-309 8,-309 8,-161 8,-161 8,-155 14,-149 20,-149"/>
<text text-anchor="middle" x="75.5" y="-308.2" font-family="Helvetica,sans-Serif" font-size="11.00">局部预测器</text>
</g>
<g id="clust3" class="cluster">
<title>cluster_choice</title>
<path fill="none" stroke="#c98f3c" stroke-dasharray="5,2" d="M182,-148C182,-148 290,-148 290,-148 296,-148 302,-154 302,-160 302,-160 302,-210 302,-210 302,-216 296,-222 290,-222 290,-222 182,-222 182,-222 176,-222 170,-216 170,-210 170,-210 170,-160 170,-160 170,-154 176,-148 182,-148"/>
<text text-anchor="middle" x="236" y="-209.2" font-family="Helvetica,sans-Serif" font-size="11.00">选择器 (Tournament)</text>
</g>
<!-- PC -->
<g id="node1" class="node">
<title>PC</title>
<path fill="#dbe7ff" stroke="#4a6fa5" d="M839,-465C839,-465 809,-465 809,-465 803,-465 797,-459 797,-453 797,-453 797,-441 797,-441 797,-435 803,-429 809,-429 809,-429 839,-429 839,-429 845,-429 851,-435 851,-441 851,-441 851,-453 851,-453 851,-459 845,-465 839,-465"/>
<text text-anchor="middle" x="824" y="-449.8" font-family="Helvetica,sans-Serif" font-size="9.00">取指 PC</text>
<text text-anchor="middle" x="824" y="-439.8" font-family="Helvetica,sans-Serif" font-size="9.00">(IF0)</text>
</g>
<!-- HASH -->
<g id="node2" class="node">
<title>HASH</title>
<path fill="#f7f7f7" stroke="#777777" d="M300,-392C300,-392 230,-392 230,-392 224,-392 218,-386 218,-380 218,-380 218,-368 218,-368 218,-362 224,-356 230,-356 230,-356 300,-356 300,-356 306,-356 312,-362 312,-368 312,-368 312,-380 312,-380 312,-386 306,-392 300,-392"/>
<text text-anchor="middle" x="265" y="-376.8" font-family="Helvetica,sans-Serif" font-size="9.00">哈希/索引生成</text>
<text text-anchor="middle" x="265" y="-366.8" font-family="Helvetica,sans-Serif" font-size="9.00">(PC ^ GHR 折叠)</text>
</g>
<!-- PC&#45;&gt;HASH -->
<g id="edge1" class="edge">
<title>PC&#45;&gt;HASH</title>
<path fill="none" stroke="#40506b" d="M796.81,-442.9C696.09,-431.43 350,-392 350,-392 350,-392 337.62,-389.52 322.3,-386.46"/>
<polygon fill="#40506b" stroke="#40506b" points="322.96,-383.02 312.47,-384.49 321.59,-389.89 322.96,-383.02"/>
</g>
<!-- BTB -->
<g id="node8" class="node">
<title>BTB</title>
<path fill="#ffd9a0" stroke="#c98f3c" d="M950.5,-194C950.5,-194 731.5,-194 731.5,-194 725.5,-194 719.5,-188 719.5,-182 719.5,-182 719.5,-168 719.5,-168 719.5,-162 725.5,-156 731.5,-156 731.5,-156 950.5,-156 950.5,-156 956.5,-156 962.5,-162 962.5,-168 962.5,-168 962.5,-182 962.5,-182 962.5,-188 956.5,-194 950.5,-194"/>
<text text-anchor="middle" x="841" y="-182.8" font-family="Helvetica,sans-Serif" font-size="9.00">BTB 512 项 4 路</text>
<text text-anchor="middle" x="841" y="-172.8" font-family="Helvetica,sans-Serif" font-size="9.00">{tag, target, 类型(cond/call/ret/jal), 2bit 置信度}</text>
<text text-anchor="middle" x="841" y="-162.8" font-family="Helvetica,sans-Serif" font-size="9.00">每 16B 取指块最多 2 个分支</text>
</g>
<!-- PC&#45;&gt;BTB -->
<g id="edge6" class="edge">
<title>PC&#45;&gt;BTB</title>
<path fill="none" stroke="#40506b" d="M833.28,-428.91C838.1,-420.03 843,-411 843,-411 843,-411 877,-338 877,-338 877,-338 877,-329 877,-329 877,-329 857.98,-248.16 847.59,-204"/>
<polygon fill="#40506b" stroke="#40506b" points="850.97,-203.08 845.27,-194.15 844.15,-204.69 850.97,-203.08"/>
</g>
<!-- RAS -->
<g id="node9" class="node">
<title>RAS</title>
<path fill="#ffd9a0" stroke="#c98f3c" d="M682,-193C682,-193 614,-193 614,-193 608,-193 602,-187 602,-181 602,-181 602,-169 602,-169 602,-163 608,-157 614,-157 614,-157 682,-157 682,-157 688,-157 694,-163 694,-169 694,-169 694,-181 694,-181 694,-187 688,-193 682,-193"/>
<text text-anchor="middle" x="648" y="-177.8" font-family="Helvetica,sans-Serif" font-size="9.00">RAS 32 项</text>
<text text-anchor="middle" x="648" y="-167.8" font-family="Helvetica,sans-Serif" font-size="9.00">(推测深度恢复)</text>
</g>
<!-- PC&#45;&gt;RAS -->
<g id="edge7" class="edge">
<title>PC&#45;&gt;RAS</title>
<path fill="none" stroke="#40506b" d="M819.99,-428.69C808.13,-377.43 774,-230 774,-230 774,-230 707,-222 707,-222 707,-222 692.58,-210.76 678,-199.39"/>
<polygon fill="#40506b" stroke="#40506b" points="680.01,-196.52 669.97,-193.13 675.7,-202.04 680.01,-196.52"/>
<text text-anchor="middle" x="825" y="-331.6" font-family="Helvetica,sans-Serif" font-size="8.00">ret 预测</text>
</g>
<!-- GPHT -->
<g id="node4" class="node">
<title>GPHT</title>
<path fill="#ffe9cc" stroke="#c98f3c" d="M437.5,-193C437.5,-193 330.5,-193 330.5,-193 324.5,-193 318.5,-187 318.5,-181 318.5,-181 318.5,-169 318.5,-169 318.5,-163 324.5,-157 330.5,-157 330.5,-157 437.5,-157 437.5,-157 443.5,-157 449.5,-163 449.5,-169 449.5,-169 449.5,-181 449.5,-181 449.5,-187 443.5,-193 437.5,-193"/>
<text text-anchor="middle" x="384" y="-177.8" font-family="Helvetica,sans-Serif" font-size="9.00">全局 PHT</text>
<text text-anchor="middle" x="384" y="-167.8" font-family="Helvetica,sans-Serif" font-size="9.00">4096 × 2bit 饱和计数器</text>
</g>
<!-- HASH&#45;&gt;GPHT -->
<g id="edge2" class="edge">
<title>HASH&#45;&gt;GPHT</title>
<path fill="none" stroke="#40506b" d="M276.46,-355.97C286.67,-340.81 300,-321 300,-321 300,-321 344.76,-243.74 368.93,-202.01"/>
<polygon fill="#40506b" stroke="#40506b" points="372.05,-203.61 374.03,-193.2 365.99,-200.1 372.05,-203.61"/>
<text text-anchor="middle" x="368" y="-273.1" font-family="Helvetica,sans-Serif" font-size="8.00">PC[11:0] ^ GHR</text>
</g>
<!-- LHT -->
<g id="node5" class="node">
<title>LHT</title>
<path fill="#ffe9cc" stroke="#c98f3c" d="M95.5,-293C95.5,-293 46.5,-293 46.5,-293 40.5,-293 34.5,-287 34.5,-281 34.5,-281 34.5,-269 34.5,-269 34.5,-263 40.5,-257 46.5,-257 46.5,-257 95.5,-257 95.5,-257 101.5,-257 107.5,-263 107.5,-269 107.5,-269 107.5,-281 107.5,-281 107.5,-287 101.5,-293 95.5,-293"/>
<text text-anchor="middle" x="71" y="-277.8" font-family="Helvetica,sans-Serif" font-size="9.00">局部历史表</text>
<text text-anchor="middle" x="71" y="-267.8" font-family="Helvetica,sans-Serif" font-size="9.00">1024 × 8bit</text>
</g>
<!-- HASH&#45;&gt;LHT -->
<g id="edge3" class="edge">
<title>HASH&#45;&gt;LHT</title>
<path fill="none" stroke="#40506b" d="M217.89,-361.05C177.92,-350.91 127,-338 127,-338 127,-338 109.08,-318.16 93.51,-300.92"/>
<polygon fill="#40506b" stroke="#40506b" points="95.9,-298.35 86.6,-293.27 90.7,-303.04 95.9,-298.35"/>
<text text-anchor="middle" x="142" y="-331.6" font-family="Helvetica,sans-Serif" font-size="8.00">PC[9:0]</text>
</g>
<!-- CH -->
<g id="node7" class="node">
<title>CH</title>
<path fill="#ffe9cc" stroke="#c98f3c" d="M281.5,-194C281.5,-194 202.5,-194 202.5,-194 196.5,-194 190.5,-188 190.5,-182 190.5,-182 190.5,-168 190.5,-168 190.5,-162 196.5,-156 202.5,-156 202.5,-156 281.5,-156 281.5,-156 287.5,-156 293.5,-162 293.5,-168 293.5,-168 293.5,-182 293.5,-182 293.5,-188 287.5,-194 281.5,-194"/>
<text text-anchor="middle" x="242" y="-182.8" font-family="Helvetica,sans-Serif" font-size="9.00">Choice PHT</text>
<text text-anchor="middle" x="242" y="-172.8" font-family="Helvetica,sans-Serif" font-size="9.00">4096 × 2bit</text>
<text text-anchor="middle" x="242" y="-162.8" font-family="Helvetica,sans-Serif" font-size="9.00">(哪个预测器更准)</text>
</g>
<!-- HASH&#45;&gt;CH -->
<g id="edge4" class="edge">
<title>HASH&#45;&gt;CH</title>
<path fill="none" stroke="#40506b" d="M242.08,-355.97C221.66,-340.81 195,-321 195,-321 195,-321 195,-257 195,-257 195,-257 212.51,-226.82 226.16,-203.31"/>
<polygon fill="#40506b" stroke="#40506b" points="229.34,-204.79 231.33,-194.38 223.29,-201.27 229.34,-204.79"/>
<text text-anchor="middle" x="246.5" y="-273.1" font-family="Helvetica,sans-Serif" font-size="8.00">PC[11:0] ^ GHR 折叠</text>
</g>
<!-- GHR -->
<g id="node3" class="node">
<title>GHR</title>
<path fill="#ffe9cc" stroke="#c98f3c" d="M555,-193C555,-193 487,-193 487,-193 481,-193 475,-187 475,-181 475,-181 475,-169 475,-169 475,-163 481,-157 487,-157 487,-157 555,-157 555,-157 561,-157 567,-163 567,-169 567,-169 567,-181 567,-181 567,-187 561,-193 555,-193"/>
<text text-anchor="middle" x="521" y="-177.8" font-family="Helvetica,sans-Serif" font-size="9.00">GHR 12 bit</text>
<text text-anchor="middle" x="521" y="-167.8" font-family="Helvetica,sans-Serif" font-size="9.00">(分支结果历史)</text>
</g>
<!-- MUX -->
<g id="node10" class="node">
<title>MUX</title>
<path fill="#f7f7f7" stroke="#777777" d="M568.5,-111C568.5,-111 473.5,-111 473.5,-111 467.5,-111 461.5,-105 461.5,-99 461.5,-99 461.5,-87 461.5,-87 461.5,-81 467.5,-75 473.5,-75 473.5,-75 568.5,-75 568.5,-75 574.5,-75 580.5,-81 580.5,-87 580.5,-87 580.5,-99 580.5,-99 580.5,-105 574.5,-111 568.5,-111"/>
<text text-anchor="middle" x="521" y="-95.8" font-family="Helvetica,sans-Serif" font-size="9.00">预测结果选择</text>
<text text-anchor="middle" x="521" y="-85.8" font-family="Helvetica,sans-Serif" font-size="9.00">(方向 + 目标 + 类型)</text>
</g>
<!-- GHR&#45;&gt;MUX -->
<g id="edge8" class="edge">
<title>GHR&#45;&gt;MUX</title>
<path fill="none" stroke="#40506b" d="M521,-156.64C521,-146.3 521,-132.94 521,-121.22"/>
<polygon fill="#40506b" stroke="#40506b" points="524.5,-121.05 521,-111.05 517.5,-121.05 524.5,-121.05"/>
<text text-anchor="middle" x="559" y="-131.6" font-family="Helvetica,sans-Serif" font-size="8.00">全局预测</text>
</g>
<!-- LPHT -->
<g id="node6" class="node">
<title>LPHT</title>
<path fill="#ffe9cc" stroke="#c98f3c" d="M123,-193C123,-193 75,-193 75,-193 69,-193 63,-187 63,-181 63,-181 63,-169 63,-169 63,-163 69,-157 75,-157 75,-157 123,-157 123,-157 129,-157 135,-163 135,-169 135,-169 135,-181 135,-181 135,-187 129,-193 123,-193"/>
<text text-anchor="middle" x="99" y="-177.8" font-family="Helvetica,sans-Serif" font-size="9.00">局部 PHT</text>
<text text-anchor="middle" x="99" y="-167.8" font-family="Helvetica,sans-Serif" font-size="9.00">4096 × 2bit</text>
</g>
<!-- LHT&#45;&gt;LPHT -->
<g id="edge5" class="edge">
<title>LHT&#45;&gt;LPHT</title>
<path fill="none" stroke="#40506b" d="M67.09,-256.91C65.06,-248.03 63,-239 63,-239 63,-239 63,-230 63,-230 63,-230 72.64,-215.53 81.95,-201.58"/>
<polygon fill="#40506b" stroke="#40506b" points="84.97,-203.35 87.61,-193.09 79.15,-199.46 84.97,-203.35"/>
<text text-anchor="middle" x="110" y="-232.6" font-family="Helvetica,sans-Serif" font-size="8.00">8bit 局部历史</text>
</g>
<!-- LPHT&#45;&gt;MUX -->
<g id="edge9" class="edge">
<title>LPHT&#45;&gt;MUX</title>
<path fill="none" stroke="#40506b" d="M135.3,-159.48C150.19,-153.52 164,-148 164,-148 164,-148 263,-129 263,-129 263,-129 375.01,-113.81 451.42,-103.44"/>
<polygon fill="#40506b" stroke="#40506b" points="452.05,-106.89 461.49,-102.07 451.11,-99.95 452.05,-106.89"/>
<text text-anchor="middle" x="301" y="-131.6" font-family="Helvetica,sans-Serif" font-size="8.00">局部预测</text>
</g>
<!-- CH&#45;&gt;MUX -->
<g id="edge10" class="edge">
<title>CH&#45;&gt;MUX</title>
<path fill="none" stroke="#40506b" d="M285.06,-155.94C295.64,-151.51 304,-148 304,-148 304,-148 387.95,-127.11 451.42,-111.31"/>
<polygon fill="#40506b" stroke="#40506b" points="452.56,-114.64 461.42,-108.83 450.87,-107.85 452.56,-114.64"/>
<text text-anchor="middle" x="412" y="-131.6" font-family="Helvetica,sans-Serif" font-size="8.00">选择信号</text>
</g>
<!-- BTB&#45;&gt;MUX -->
<g id="edge11" class="edge">
<title>BTB&#45;&gt;MUX</title>
<path fill="none" stroke="#40506b" d="M781.66,-155.96C740.48,-143.44 693,-129 693,-129 693,-129 638.4,-117.89 590.72,-108.19"/>
<polygon fill="#40506b" stroke="#40506b" points="591.17,-104.71 580.67,-106.14 589.78,-111.57 591.17,-104.71"/>
<text text-anchor="middle" x="760.5" y="-131.6" font-family="Helvetica,sans-Serif" font-size="8.00">目标/类型</text>
</g>
<!-- RAS&#45;&gt;MUX -->
<g id="edge12" class="edge">
<title>RAS&#45;&gt;MUX</title>
<path fill="none" stroke="#40506b" d="M630.99,-156.99C618.24,-144.24 603,-129 603,-129 603,-129 587.67,-122.46 570.26,-115.03"/>
<polygon fill="#40506b" stroke="#40506b" points="571.61,-111.8 561.04,-111.09 568.86,-118.23 571.61,-111.8"/>
<text text-anchor="middle" x="649" y="-131.6" font-family="Helvetica,sans-Serif" font-size="8.00">返回目标</text>
</g>
<!-- PRE -->
<g id="node11" class="node">
<title>PRE</title>
<path fill="#dbe7ff" stroke="#4a6fa5" d="M574,-38C574,-38 468,-38 468,-38 462,-38 456,-32 456,-26 456,-26 456,-12 456,-12 456,-6 462,0 468,0 468,0 574,0 574,0 580,0 586,-6 586,-12 586,-12 586,-26 586,-26 586,-32 580,-38 574,-38"/>
<text text-anchor="middle" x="521" y="-26.8" font-family="Helvetica,sans-Serif" font-size="9.00">预测输出</text>
<text text-anchor="middle" x="521" y="-16.8" font-family="Helvetica,sans-Serif" font-size="9.00">pred_taken / pred_target</text>
<text text-anchor="middle" x="521" y="-6.8" font-family="Helvetica,sans-Serif" font-size="9.00">到 IF0 PC 选择</text>
</g>
<!-- MUX&#45;&gt;PRE -->
<g id="edge13" class="edge">
<title>MUX&#45;&gt;PRE</title>
<path fill="none" stroke="#40506b" d="M521,-74.94C521,-66.99 521,-57.31 521,-48.31"/>
<polygon fill="#40506b" stroke="#40506b" points="524.5,-48.2 521,-38.2 517.5,-48.2 524.5,-48.2"/>
</g>
<!-- UPD -->
<g id="node12" class="node">
<title>UPD</title>
<path fill="#d8f0e8" stroke="#3f8f78" d="M504,-293C504,-293 466,-293 466,-293 460,-293 454,-287 454,-281 454,-281 454,-269 454,-269 454,-263 460,-257 466,-257 466,-257 504,-257 504,-257 510,-257 516,-263 516,-269 516,-269 516,-281 516,-281 516,-287 510,-293 504,-293"/>
<text text-anchor="middle" x="485" y="-272.8" font-family="Helvetica,sans-Serif" font-size="9.00">更新逻辑</text>
</g>
<!-- UPD&#45;&gt;GHR -->
<g id="edge21" class="edge">
<title>UPD&#45;&gt;GHR</title>
<path fill="none" stroke="#40506b" stroke-dasharray="5,2" d="M491.27,-256.93C496.76,-241.99 504.83,-220.02 511.18,-202.75"/>
<polygon fill="#40506b" stroke="#40506b" points="514.52,-203.8 514.68,-193.2 507.95,-201.38 514.52,-203.8"/>
<text text-anchor="middle" x="556.5" y="-232.6" font-family="Helvetica,sans-Serif" font-size="8.00">实际方向移位</text>
</g>
<!-- UPD&#45;&gt;GPHT -->
<g id="edge16" class="edge">
<title>UPD&#45;&gt;GPHT</title>
<path fill="none" stroke="#40506b" stroke-dasharray="5,2" d="M453.59,-261.36C428.67,-251.34 398,-239 398,-239 398,-239 393.87,-220.39 390.09,-203.4"/>
<polygon fill="#40506b" stroke="#40506b" points="393.41,-202.22 387.83,-193.22 386.58,-203.74 393.41,-202.22"/>
<text text-anchor="middle" x="445" y="-232.6" font-family="Helvetica,sans-Serif" font-size="8.00">更新计数器</text>
</g>
<!-- UPD&#45;&gt;LPHT -->
<g id="edge17" class="edge">
<title>UPD&#45;&gt;LPHT</title>
<path fill="none" stroke="#40506b" stroke-dasharray="5,2" d="M453.95,-267.86C429.32,-262.99 399,-257 399,-257 399,-257 164,-222 164,-222 164,-222 147.82,-210.55 131.6,-199.07"/>
<polygon fill="#40506b" stroke="#40506b" points="133.39,-196.05 123.2,-193.13 129.34,-201.76 133.39,-196.05"/>
</g>
<!-- UPD&#45;&gt;CH -->
<g id="edge18" class="edge">
<title>UPD&#45;&gt;CH</title>
<path fill="none" stroke="#40506b" stroke-dasharray="5,2" d="M453.88,-265.06C402.13,-250.19 304,-222 304,-222 304,-222 289.64,-211.35 274.75,-200.3"/>
<polygon fill="#40506b" stroke="#40506b" points="276.62,-197.33 266.5,-194.18 272.45,-202.95 276.62,-197.33"/>
</g>
<!-- UPD&#45;&gt;BTB -->
<g id="edge19" class="edge">
<title>UPD&#45;&gt;BTB</title>
<path fill="none" stroke="#40506b" stroke-dasharray="5,2" d="M516.04,-268.06C568.25,-258.08 668,-239 668,-239 668,-239 731.81,-215.76 781.93,-197.51"/>
<polygon fill="#40506b" stroke="#40506b" points="783.23,-200.76 791.43,-194.05 780.83,-194.19 783.23,-200.76"/>
<text text-anchor="middle" x="728.5" y="-232.6" font-family="Helvetica,sans-Serif" font-size="8.00">分配/替换</text>
</g>
<!-- UPD&#45;&gt;RAS -->
<g id="edge20" class="edge">
<title>UPD&#45;&gt;RAS</title>
<path fill="none" stroke="#40506b" stroke-dasharray="5,2" d="M516.08,-265.88C555.66,-255.54 619,-239 619,-239 619,-239 627.89,-219.68 635.83,-202.44"/>
<polygon fill="#40506b" stroke="#40506b" points="639.07,-203.76 640.08,-193.22 632.71,-200.84 639.07,-203.76"/>
<text text-anchor="middle" x="642" y="-232.6" font-family="Helvetica,sans-Serif" font-size="8.00">push/pop</text>
</g>
<!-- UPD_EX -->
<g id="node13" class="node">
<title>UPD_EX</title>
<path fill="#e2f5d8" stroke="#5d8f45" d="M664.5,-392C664.5,-392 547.5,-392 547.5,-392 541.5,-392 535.5,-386 535.5,-380 535.5,-380 535.5,-368 535.5,-368 535.5,-362 541.5,-356 547.5,-356 547.5,-356 664.5,-356 664.5,-356 670.5,-356 676.5,-362 676.5,-368 676.5,-368 676.5,-380 676.5,-380 676.5,-386 670.5,-392 664.5,-392"/>
<text text-anchor="middle" x="606" y="-376.8" font-family="Helvetica,sans-Serif" font-size="9.00">EX：分支解析</text>
<text text-anchor="middle" x="606" y="-366.8" font-family="Helvetica,sans-Serif" font-size="9.00">(方向/目标/RAS/间接跳转)</text>
</g>
<!-- UPD_EX&#45;&gt;UPD -->
<g id="edge14" class="edge">
<title>UPD_EX&#45;&gt;UPD</title>
<path fill="none" stroke="#40506b" d="M584.65,-355.88C565.15,-340.26 536.16,-317.01 514.47,-299.62"/>
<polygon fill="#40506b" stroke="#40506b" points="516.54,-296.8 506.55,-293.27 512.16,-302.26 516.54,-296.8"/>
<text text-anchor="middle" x="597" y="-331.6" font-family="Helvetica,sans-Serif" font-size="8.00">解析结果</text>
</g>
<!-- UPD_RT -->
<g id="node14" class="node">
<title>UPD_RT</title>
<path fill="#d8f0e8" stroke="#3f8f78" d="M498,-392C498,-392 374,-392 374,-392 368,-392 362,-386 362,-380 362,-380 362,-368 362,-368 362,-362 368,-356 374,-356 374,-356 498,-356 498,-356 504,-356 510,-362 510,-368 510,-368 510,-380 510,-380 510,-386 504,-392 498,-392"/>
<text text-anchor="middle" x="436" y="-376.8" font-family="Helvetica,sans-Serif" font-size="9.00">RT：提交时修正</text>
<text text-anchor="middle" x="436" y="-366.8" font-family="Helvetica,sans-Serif" font-size="9.00">(仅提交路径可更新计数器)</text>
</g>
<!-- UPD_RT&#45;&gt;UPD -->
<g id="edge15" class="edge">
<title>UPD_RT&#45;&gt;UPD</title>
<path fill="none" stroke="#40506b" d="M444.76,-355.66C452.22,-340.9 463.04,-319.46 471.59,-302.55"/>
<polygon fill="#40506b" stroke="#40506b" points="474.93,-303.7 476.32,-293.19 468.68,-300.54 474.93,-303.7"/>
<text text-anchor="middle" x="495" y="-331.6" font-family="Helvetica,sans-Serif" font-size="8.00">提交确认</text>
</g>
</g>
</svg>
