<?xml version="1.0" encoding="UTF-8" standalone="no"?>
<!DOCTYPE svg PUBLIC "-//W3C//DTD SVG 1.1//EN"
 "http://www.w3.org/Graphics/SVG/1.1/DTD/svg11.dtd">
<!-- Generated by graphviz version 2.43.0 (0)
 -->
<!-- Title: mem Pages: 1 -->
<svg width="848pt" height="698pt"
 viewBox="0.00 0.00 848.00 698.00" xmlns="http://www.w3.org/2000/svg" xmlns:xlink="http://www.w3.org/1999/xlink">
<g id="graph0" class="graph" transform="scale(1 1) rotate(0) translate(4 694)">
<title>mem</title>
<polygon fill="white" stroke="transparent" points="-4,4 -4,-694 844,-694 844,4 -4,4"/>
<g id="clust1" class="cluster">
<title>cluster_core</title>
<path fill="none" stroke="#4a6fa5" stroke-dasharray="5,2" d="M68,-272C68,-272 561,-272 561,-272 567,-272 573,-278 573,-284 573,-284 573,-670 573,-670 573,-676 567,-682 561,-682 561,-682 68,-682 68,-682 62,-682 56,-676 56,-670 56,-670 56,-284 56,-284 56,-278 62,-272 68,-272"/>
<text text-anchor="middle" x="314.5" y="-669.2" font-family="Helvetica,sans-Serif" font-size="11.00">处理器核</text>
</g>
<g id="clust2" class="cluster">
<title>cluster_tlb</title>
<path fill="none" stroke="#a58a4a" stroke-dasharray="5,2" d="M76,-356C76,-356 296,-356 296,-356 302,-356 308,-362 308,-368 308,-368 308,-579 308,-579 308,-585 302,-591 296,-591 296,-591 76,-591 76,-591 70,-591 64,-585 64,-579 64,-579 64,-368 64,-368 64,-362 70,-356 76,-356"/>
<text text-anchor="middle" x="186" y="-578.2" font-family="Helvetica,sans-Serif" font-size="11.00">MMU (Sv32)</text>
</g>
<g id="clust3" class="cluster">
<title>cluster_int</title>
<path fill="none" stroke="#a55a5a" stroke-dasharray="5,2" d="M543,-173C543,-173 813,-173 813,-173 819,-173 825,-179 825,-185 825,-185 825,-233 825,-233 825,-239 819,-245 813,-245 813,-245 543,-245 543,-245 537,-245 531,-239 531,-233 531,-233 531,-185 531,-185 531,-179 537,-173 543,-173"/>
<text text-anchor="middle" x="678" y="-232.2" font-family="Helvetica,sans-Serif" font-size="11.00">CPU 内部设备（地址窗口被核内截获，不下 AXI）</text>
</g>
<g id="clust4" class="cluster">
<title>cluster_soc</title>
<path fill="none" stroke="#777777" stroke-dasharray="5,2" d="M20,-8C20,-8 820,-8 820,-8 826,-8 832,-14 832,-20 832,-20 832,-68 832,-68 832,-74 826,-80 820,-80 820,-80 20,-80 20,-80 14,-80 8,-74 8,-68 8,-68 8,-20 8,-20 8,-14 14,-8 20,-8"/>
<text text-anchor="middle" x="420" y="-67.2" font-family="Helvetica,sans-Serif" font-size="11.00">chiplab SoC (33MHz)</text>
</g>
<!-- VA -->
<g id="node1" class="node">
<title>VA</title>
<path fill="#dbe7ff" stroke="#4a6fa5" d="M238,-654C238,-654 132,-654 132,-654 126,-654 120,-648 120,-642 120,-642 120,-630 120,-630 120,-624 126,-618 132,-618 132,-618 238,-618 238,-618 244,-618 250,-624 250,-630 250,-630 250,-642 250,-642 250,-648 244,-654 238,-654"/>
<text text-anchor="middle" x="185" y="-638.8" font-family="Helvetica,sans-Serif" font-size="9.00">虚拟地址</text>
<text text-anchor="middle" x="185" y="-628.8" font-family="Helvetica,sans-Serif" font-size="9.00">(IF: PC / MEM: AGU 结果)</text>
</g>
<!-- ITLB -->
<g id="node2" class="node">
<title>ITLB</title>
<path fill="#f0e6d2" stroke="#a58a4a" d="M159.5,-563C159.5,-563 84.5,-563 84.5,-563 78.5,-563 72.5,-557 72.5,-551 72.5,-551 72.5,-539 72.5,-539 72.5,-533 78.5,-527 84.5,-527 84.5,-527 159.5,-527 159.5,-527 165.5,-527 171.5,-533 171.5,-539 171.5,-539 171.5,-551 171.5,-551 171.5,-557 165.5,-563 159.5,-563"/>
<text text-anchor="middle" x="122" y="-542.8" font-family="Helvetica,sans-Serif" font-size="9.00">ITLB 32 项全相联</text>
</g>
<!-- VA&#45;&gt;ITLB -->
<g id="edge1" class="edge">
<title>VA&#45;&gt;ITLB</title>
<path fill="none" stroke="#40506b" d="M172.85,-617.84C163.53,-604.67 150.51,-586.27 139.98,-571.39"/>
<polygon fill="#40506b" stroke="#40506b" points="142.74,-569.25 134.11,-563.11 137.03,-573.29 142.74,-569.25"/>
</g>
<!-- DTLB -->
<g id="node3" class="node">
<title>DTLB</title>
<path fill="#f0e6d2" stroke="#a58a4a" d="M287.5,-563C287.5,-563 208.5,-563 208.5,-563 202.5,-563 196.5,-557 196.5,-551 196.5,-551 196.5,-539 196.5,-539 196.5,-533 202.5,-527 208.5,-527 208.5,-527 287.5,-527 287.5,-527 293.5,-527 299.5,-533 299.5,-539 299.5,-539 299.5,-551 299.5,-551 299.5,-557 293.5,-563 287.5,-563"/>
<text text-anchor="middle" x="248" y="-542.8" font-family="Helvetica,sans-Serif" font-size="9.00">DTLB 64 项全相联</text>
</g>
<!-- VA&#45;&gt;DTLB -->
<g id="edge2" class="edge">
<title>VA&#45;&gt;DTLB</title>
<path fill="none" stroke="#40506b" d="M197.15,-617.84C206.47,-604.67 219.49,-586.27 230.02,-571.39"/>
<polygon fill="#40506b" stroke="#40506b" points="232.97,-573.29 235.89,-563.11 227.26,-569.25 232.97,-573.29"/>
</g>
<!-- L2TLB -->
<g id="node4" class="node">
<title>L2TLB</title>
<path fill="#f0e6d2" stroke="#a58a4a" d="M215,-482C215,-482 133,-482 133,-482 127,-482 121,-476 121,-470 121,-470 121,-458 121,-458 121,-452 127,-446 133,-446 133,-446 215,-446 215,-446 221,-446 227,-452 227,-458 227,-458 227,-470 227,-470 227,-476 221,-482 215,-482"/>
<text text-anchor="middle" x="174" y="-466.8" font-family="Helvetica,sans-Serif" font-size="9.00">L2 TLB 256 项 4 路</text>
<text text-anchor="middle" x="174" y="-456.8" font-family="Helvetica,sans-Serif" font-size="9.00">(共享, ASID/global)</text>
</g>
<!-- ITLB&#45;&gt;L2TLB -->
<g id="edge5" class="edge">
<title>ITLB&#45;&gt;L2TLB</title>
<path fill="none" stroke="#40506b" stroke-dasharray="5,2" d="M133.28,-526.86C140.23,-516.3 149.28,-502.56 157.07,-490.71"/>
<polygon fill="#40506b" stroke="#40506b" points="160.16,-492.39 162.74,-482.11 154.32,-488.54 160.16,-492.39"/>
</g>
<!-- PA -->
<g id="node6" class="node">
<title>PA</title>
<path fill="#dbe7ff" stroke="#4a6fa5" d="M377,-482C377,-482 339,-482 339,-482 333,-482 327,-476 327,-470 327,-470 327,-458 327,-458 327,-452 333,-446 339,-446 339,-446 377,-446 377,-446 383,-446 389,-452 389,-458 389,-458 389,-470 389,-470 389,-476 383,-482 377,-482"/>
<text text-anchor="middle" x="358" y="-461.8" font-family="Helvetica,sans-Serif" font-size="9.00">物理地址</text>
</g>
<!-- ITLB&#45;&gt;PA -->
<g id="edge3" class="edge">
<title>ITLB&#45;&gt;PA</title>
<path fill="none" stroke="#40506b" d="M171.94,-527.87C228.83,-509.5 314,-482 314,-482 314,-482 315.25,-481.52 317.33,-480.72"/>
<polygon fill="#40506b" stroke="#40506b" points="318.9,-483.86 326.96,-476.99 316.37,-477.33 318.9,-483.86"/>
<text text-anchor="middle" x="276" y="-502.6" font-family="Helvetica,sans-Serif" font-size="8.00">命中</text>
</g>
<!-- DTLB&#45;&gt;L2TLB -->
<g id="edge6" class="edge">
<title>DTLB&#45;&gt;L2TLB</title>
<path fill="none" stroke="#40506b" stroke-dasharray="5,2" d="M215.77,-526.91C199.02,-518.03 182,-509 182,-509 182,-509 180.58,-501.18 178.93,-492.13"/>
<polygon fill="#40506b" stroke="#40506b" points="182.35,-491.35 177.12,-482.14 175.46,-492.6 182.35,-491.35"/>
</g>
<!-- DTLB&#45;&gt;PA -->
<g id="edge4" class="edge">
<title>DTLB&#45;&gt;PA</title>
<path fill="none" stroke="#40506b" d="M275.34,-526.91C289.56,-518.03 304,-509 304,-509 304,-509 316.21,-499.05 329.02,-488.61"/>
<polygon fill="#40506b" stroke="#40506b" points="331.43,-491.17 336.97,-482.14 327,-485.74 331.43,-491.17"/>
<text text-anchor="middle" x="333" y="-502.6" font-family="Helvetica,sans-Serif" font-size="8.00">命中</text>
</g>
<!-- PTW -->
<g id="node5" class="node">
<title>PTW</title>
<path fill="#f0e6d2" stroke="#a58a4a" d="M278.5,-400C278.5,-400 165.5,-400 165.5,-400 159.5,-400 153.5,-394 153.5,-388 153.5,-388 153.5,-376 153.5,-376 153.5,-370 159.5,-364 165.5,-364 165.5,-364 278.5,-364 278.5,-364 284.5,-364 290.5,-370 290.5,-376 290.5,-376 290.5,-388 290.5,-388 290.5,-394 284.5,-400 278.5,-400"/>
<text text-anchor="middle" x="222" y="-384.8" font-family="Helvetica,sans-Serif" font-size="9.00">硬件页表遍历器</text>
<text text-anchor="middle" x="222" y="-374.8" font-family="Helvetica,sans-Serif" font-size="9.00">2 级 PTE 读 + A/D 位更新</text>
</g>
<!-- L2TLB&#45;&gt;PTW -->
<g id="edge7" class="edge">
<title>L2TLB&#45;&gt;PTW</title>
<path fill="none" stroke="#c04040" stroke-dasharray="5,2" d="M167.16,-445.91C163.61,-437.03 160,-428 160,-428 160,-428 160,-419 160,-419 160,-419 170.88,-412.68 183.53,-405.34"/>
<polygon fill="#c04040" stroke="#c04040" points="185.56,-408.2 192.45,-400.16 182.05,-402.15 185.56,-408.2"/>
<text text-anchor="middle" x="179" y="-421.6" font-family="Helvetica,sans-Serif" font-size="8.00" fill="#c04040">缺失</text>
</g>
<!-- PTW&#45;&gt;L2TLB -->
<g id="edge9" class="edge">
<title>PTW&#45;&gt;L2TLB</title>
<path fill="none" stroke="#40506b" stroke-dasharray="5,2" d="M211.99,-400.16C206.58,-409.43 201,-419 201,-419 201,-419 200,-428 200,-428 200,-428 196.83,-432.27 192.71,-437.82"/>
<polygon fill="#40506b" stroke="#40506b" points="189.85,-435.8 186.7,-445.91 195.47,-439.97 189.85,-435.8"/>
<text text-anchor="middle" x="220" y="-421.6" font-family="Helvetica,sans-Serif" font-size="8.00">填充</text>
</g>
<!-- L2 -->
<g id="node9" class="node">
<title>L2</title>
<path fill="#f3e2f5" stroke="#8f5d8f" d="M440,-318C440,-318 308,-318 308,-318 302,-318 296,-312 296,-306 296,-306 296,-292 296,-292 296,-286 302,-280 308,-280 308,-280 440,-280 440,-280 446,-280 452,-286 452,-292 452,-292 452,-306 452,-306 452,-312 446,-318 440,-318"/>
<text text-anchor="middle" x="374" y="-306.8" font-family="Helvetica,sans-Serif" font-size="9.00">L2 统一 256KB 8way 32B PIPT</text>
<text text-anchor="middle" x="374" y="-296.8" font-family="Helvetica,sans-Serif" font-size="9.00">4 refill / victim buffer</text>
<text text-anchor="middle" x="374" y="-286.8" font-family="Helvetica,sans-Serif" font-size="9.00">next&#45;line 预取</text>
</g>
<!-- PTW&#45;&gt;L2 -->
<g id="edge8" class="edge">
<title>PTW&#45;&gt;L2</title>
<path fill="none" stroke="#40506b" stroke-dasharray="5,2" d="M254.24,-363.82C276.57,-351.92 306.55,-335.95 330.92,-322.95"/>
<polygon fill="#40506b" stroke="#40506b" points="332.79,-325.93 339.97,-318.14 329.49,-319.75 332.79,-325.93"/>
<text text-anchor="middle" x="320.5" y="-338.6" font-family="Helvetica,sans-Serif" font-size="8.00">PTE 读</text>
</g>
<!-- L1I -->
<g id="node7" class="node">
<title>L1I</title>
<path fill="#f3e2f5" stroke="#8f5d8f" d="M410,-400C410,-400 328,-400 328,-400 322,-400 316,-394 316,-388 316,-388 316,-376 316,-376 316,-370 322,-364 328,-364 328,-364 410,-364 410,-364 416,-364 422,-370 422,-376 422,-376 422,-388 422,-388 422,-394 416,-400 410,-400"/>
<text text-anchor="middle" x="369" y="-384.8" font-family="Helvetica,sans-Serif" font-size="9.00">L1I 16KB 4way 32B</text>
<text text-anchor="middle" x="369" y="-374.8" font-family="Helvetica,sans-Serif" font-size="9.00">VIPT 别名安全</text>
</g>
<!-- PA&#45;&gt;L1I -->
<g id="edge10" class="edge">
<title>PA&#45;&gt;L1I</title>
<path fill="none" stroke="#40506b" d="M360.39,-445.64C361.81,-435.3 363.65,-421.94 365.26,-410.22"/>
<polygon fill="#40506b" stroke="#40506b" points="368.76,-410.43 366.66,-400.05 361.83,-409.48 368.76,-410.43"/>
</g>
<!-- L1D -->
<g id="node8" class="node">
<title>L1D</title>
<path fill="#f3e2f5" stroke="#8f5d8f" d="M553,-401C553,-401 459,-401 459,-401 453,-401 447,-395 447,-389 447,-389 447,-375 447,-375 447,-369 453,-363 459,-363 459,-363 553,-363 553,-363 559,-363 565,-369 565,-375 565,-375 565,-389 565,-389 565,-395 559,-401 553,-401"/>
<text text-anchor="middle" x="506" y="-389.8" font-family="Helvetica,sans-Serif" font-size="9.00">L1D 32KB 8way 32B</text>
<text text-anchor="middle" x="506" y="-379.8" font-family="Helvetica,sans-Serif" font-size="9.00">write&#45;back/allocate</text>
<text text-anchor="middle" x="506" y="-369.8" font-family="Helvetica,sans-Serif" font-size="9.00">8 MSHR + store buffer</text>
</g>
<!-- PA&#45;&gt;L1D -->
<g id="edge11" class="edge">
<title>PA&#45;&gt;L1D</title>
<path fill="none" stroke="#40506b" d="M389.03,-446.23C410.67,-434.53 439.83,-418.77 463.61,-405.91"/>
<polygon fill="#40506b" stroke="#40506b" points="465.31,-408.97 472.44,-401.14 461.98,-402.82 465.31,-408.97"/>
</g>
<!-- L1I&#45;&gt;L2 -->
<g id="edge12" class="edge">
<title>L1I&#45;&gt;L2</title>
<path fill="none" stroke="#40506b" d="M370.06,-363.82C370.69,-353.58 371.51,-340.33 372.24,-328.55"/>
<polygon fill="#40506b" stroke="#40506b" points="375.75,-328.48 372.87,-318.28 368.76,-328.04 375.75,-328.48"/>
<text text-anchor="middle" x="390" y="-338.6" font-family="Helvetica,sans-Serif" font-size="8.00">缺失</text>
</g>
<!-- L1D&#45;&gt;L2 -->
<g id="edge13" class="edge">
<title>L1D&#45;&gt;L2</title>
<path fill="none" stroke="#40506b" d="M476.38,-362.82C457.44,-351.2 432.69,-336.02 412.27,-323.49"/>
<polygon fill="#40506b" stroke="#40506b" points="413.88,-320.36 403.52,-318.12 410.22,-326.33 413.88,-320.36"/>
<text text-anchor="middle" x="482.5" y="-338.6" font-family="Helvetica,sans-Serif" font-size="8.00">缺失/写回</text>
</g>
<!-- UNC -->
<g id="node10" class="node">
<title>UNC</title>
<path fill="#ffe9cc" stroke="#c98f3c" d="M695,-317C695,-317 593,-317 593,-317 587,-317 581,-311 581,-305 581,-305 581,-293 581,-293 581,-287 587,-281 593,-281 593,-281 695,-281 695,-281 701,-281 707,-287 707,-293 707,-293 707,-305 707,-305 707,-311 701,-317 695,-317"/>
<text text-anchor="middle" x="644" y="-301.8" font-family="Helvetica,sans-Serif" font-size="9.00">非缓存/设备通道</text>
<text text-anchor="middle" x="644" y="-291.8" font-family="Helvetica,sans-Serif" font-size="9.00">(uncached, 单拍, 强序)</text>
</g>
<!-- L1D&#45;&gt;UNC -->
<g id="edge15" class="edge">
<title>L1D&#45;&gt;UNC</title>
<path fill="none" stroke="#40506b" d="M536.97,-362.82C557.5,-350.77 584.57,-334.88 606.35,-322.1"/>
<polygon fill="#40506b" stroke="#40506b" points="608.17,-325.09 615.02,-317.01 604.62,-319.05 608.17,-325.09"/>
<text text-anchor="middle" x="617" y="-338.6" font-family="Helvetica,sans-Serif" font-size="8.00">设备访问</text>
</g>
<!-- AXI -->
<g id="node13" class="node">
<title>AXI</title>
<polygon fill="#e8e8e8" stroke="#555555" points="518.5,-218 305.5,-218 301.5,-214 301.5,-180 514.5,-180 518.5,-184 518.5,-218"/>
<polyline fill="none" stroke="#555555" points="514.5,-214 301.5,-214 "/>
<polyline fill="none" stroke="#555555" points="514.5,-214 514.5,-180 "/>
<polyline fill="none" stroke="#555555" points="514.5,-214 518.5,-218 "/>
<text text-anchor="middle" x="410" y="-206.8" font-family="Helvetica,sans-Serif" font-size="9.00">AXI4 主设备桥</text>
<text text-anchor="middle" x="410" y="-196.8" font-family="Helvetica,sans-Serif" font-size="9.00">32bit data / 4bit ID / 4bit len</text>
<text text-anchor="middle" x="410" y="-186.8" font-family="Helvetica,sans-Serif" font-size="9.00">ID0=取指 ID1=读refill ID2=写回 ID3=设备</text>
</g>
<!-- L2&#45;&gt;AXI -->
<g id="edge14" class="edge">
<title>L2&#45;&gt;AXI</title>
<path fill="none" stroke="#40506b" d="M380.77,-279.57C386.14,-264.97 393.71,-244.34 399.81,-227.74"/>
<polygon fill="#40506b" stroke="#40506b" points="403.22,-228.61 403.38,-218.02 396.65,-226.2 403.22,-228.61"/>
</g>
<!-- CLINT -->
<g id="node11" class="node">
<title>CLINT</title>
<path fill="#fbe4e4" stroke="#a55a5a" d="M660.5,-217C660.5,-217 561.5,-217 561.5,-217 555.5,-217 549.5,-211 549.5,-205 549.5,-205 549.5,-193 549.5,-193 549.5,-187 555.5,-181 561.5,-181 561.5,-181 660.5,-181 660.5,-181 666.5,-181 672.5,-187 672.5,-193 672.5,-193 672.5,-205 672.5,-205 672.5,-211 666.5,-217 660.5,-217"/>
<text text-anchor="middle" x="611" y="-201.8" font-family="Helvetica,sans-Serif" font-size="9.00">CLINT @0x1F00_0000</text>
<text text-anchor="middle" x="611" y="-191.8" font-family="Helvetica,sans-Serif" font-size="9.00">mtime/mtimecmp/msip</text>
</g>
<!-- UNC&#45;&gt;CLINT -->
<g id="edge17" class="edge">
<title>UNC&#45;&gt;CLINT</title>
<path fill="none" stroke="#40506b" d="M638.25,-280.93C633.22,-265.99 625.82,-244.02 620.01,-226.75"/>
<polygon fill="#40506b" stroke="#40506b" points="623.3,-225.56 616.79,-217.2 616.67,-227.8 623.3,-225.56"/>
</g>
<!-- PLICx -->
<g id="node12" class="node">
<title>PLICx</title>
<path fill="#fbe4e4" stroke="#a55a5a" d="M798,-217C798,-217 710,-217 710,-217 704,-217 698,-211 698,-205 698,-205 698,-193 698,-193 698,-187 704,-181 710,-181 710,-181 798,-181 798,-181 804,-181 810,-187 810,-193 810,-193 810,-205 810,-205 810,-211 804,-217 798,-217"/>
<text text-anchor="middle" x="754" y="-201.8" font-family="Helvetica,sans-Serif" font-size="9.00">PLIC @0x1F10_0000</text>
<text text-anchor="middle" x="754" y="-191.8" font-family="Helvetica,sans-Serif" font-size="9.00">外部源 = intrpt[7:0]</text>
</g>
<!-- UNC&#45;&gt;PLICx -->
<g id="edge18" class="edge">
<title>UNC&#45;&gt;PLICx</title>
<path fill="none" stroke="#40506b" d="M663.16,-280.93C680.88,-265.15 707.38,-241.54 727.19,-223.89"/>
<polygon fill="#40506b" stroke="#40506b" points="729.55,-226.47 734.69,-217.2 724.9,-221.24 729.55,-226.47"/>
</g>
<!-- UNC&#45;&gt;AXI -->
<g id="edge16" class="edge">
<title>UNC&#45;&gt;AXI</title>
<path fill="none" stroke="#40506b" d="M600.06,-280.95C587.43,-276.05 577,-272 577,-272 577,-272 529,-262 529,-262 529,-262 487.59,-240.43 453.63,-222.73"/>
<polygon fill="#40506b" stroke="#40506b" points="455.23,-219.62 444.74,-218.1 451.99,-225.82 455.23,-219.62"/>
<text text-anchor="middle" x="576" y="-255.6" font-family="Helvetica,sans-Serif" font-size="8.00">非缓存读写</text>
</g>
<!-- CC -->
<g id="node14" class="node">
<title>CC</title>
<polygon fill="#f0f0f0" stroke="#777777" points="483,-143 341,-143 337,-139 337,-107 479,-107 483,-111 483,-143"/>
<polyline fill="none" stroke="#777777" points="479,-139 337,-139 "/>
<polyline fill="none" stroke="#777777" points="479,-139 479,-107 "/>
<polyline fill="none" stroke="#777777" points="479,-139 483,-143 "/>
<text text-anchor="middle" x="410" y="-127.8" font-family="Helvetica,sans-Serif" font-size="9.00">axi_clock_converter</text>
<text text-anchor="middle" x="410" y="-117.8" font-family="Helvetica,sans-Serif" font-size="9.00">(CPU 100MHz → SoC 33MHz)</text>
</g>
<!-- AXI&#45;&gt;CC -->
<g id="edge19" class="edge">
<title>AXI&#45;&gt;CC</title>
<path fill="none" stroke="#40506b" d="M410,-179.83C410,-171.89 410,-162.41 410,-153.63"/>
<polygon fill="#40506b" stroke="#40506b" points="413.5,-153.42 410,-143.42 406.5,-153.42 413.5,-153.42"/>
</g>
<!-- DDR -->
<g id="node15" class="node">
<title>DDR</title>
<path fill="#eeeeee" stroke="#777777" d="M130,-52C130,-52 28,-52 28,-52 22,-52 16,-46 16,-40 16,-40 16,-28 16,-28 16,-22 22,-16 28,-16 28,-16 130,-16 130,-16 136,-16 142,-22 142,-28 142,-28 142,-40 142,-40 142,-46 136,-52 130,-52"/>
<text text-anchor="middle" x="79" y="-36.8" font-family="Helvetica,sans-Serif" font-size="9.00">DDR3 MIG</text>
<text text-anchor="middle" x="79" y="-26.8" font-family="Helvetica,sans-Serif" font-size="9.00">128MiB @0x0000_0000</text>
</g>
<!-- CC&#45;&gt;DDR -->
<g id="edge20" class="edge">
<title>CC&#45;&gt;DDR</title>
<path fill="none" stroke="#40506b" d="M336.93,-111.39C261.58,-98.39 155,-80 155,-80 155,-80 135.64,-68.54 116.46,-57.18"/>
<polygon fill="#40506b" stroke="#40506b" points="118.12,-54.1 107.73,-52.01 114.55,-60.12 118.12,-54.1"/>
</g>
<!-- SRAM -->
<g id="node16" class="node">
<title>SRAM</title>
<path fill="#eeeeee" stroke="#777777" d="M298.5,-52C298.5,-52 179.5,-52 179.5,-52 173.5,-52 167.5,-46 167.5,-40 167.5,-40 167.5,-28 167.5,-28 167.5,-22 173.5,-16 179.5,-16 179.5,-16 298.5,-16 298.5,-16 304.5,-16 310.5,-22 310.5,-28 310.5,-28 310.5,-40 310.5,-40 310.5,-46 304.5,-52 298.5,-52"/>
<text text-anchor="middle" x="239" y="-31.8" font-family="Helvetica,sans-Serif" font-size="9.00">SRAM 1MiB @0x1C00_0000</text>
</g>
<!-- CC&#45;&gt;SRAM -->
<g id="edge21" class="edge">
<title>CC&#45;&gt;SRAM</title>
<path fill="none" stroke="#40506b" d="M376.5,-106.86C352.36,-94.51 324,-80 324,-80 324,-80 301.76,-68.22 280.03,-56.72"/>
<polygon fill="#40506b" stroke="#40506b" points="281.61,-53.6 271.13,-52.01 278.34,-59.78 281.61,-53.6"/>
</g>
<!-- UART -->
<g id="node17" class="node">
<title>UART</title>
<path fill="#eeeeee" stroke="#777777" d="M472,-52C472,-52 348,-52 348,-52 342,-52 336,-46 336,-40 336,-40 336,-28 336,-28 336,-22 342,-16 348,-16 348,-16 472,-16 472,-16 478,-16 484,-22 484,-28 484,-28 484,-40 484,-40 484,-46 478,-52 472,-52"/>
<text text-anchor="middle" x="410" y="-31.8" font-family="Helvetica,sans-Serif" font-size="9.00">UART 16550 @0x1FE0_01E0</text>
</g>
<!-- CC&#45;&gt;UART -->
<g id="edge22" class="edge">
<title>CC&#45;&gt;UART</title>
<path fill="none" stroke="#40506b" d="M410,-106.84C410,-94.28 410,-76.98 410,-62.5"/>
<polygon fill="#40506b" stroke="#40506b" points="413.5,-62.11 410,-52.11 406.5,-62.11 413.5,-62.11"/>
</g>
<!-- NANDc -->
<g id="node18" class="node">
<title>NANDc</title>
<path fill="#eeeeee" stroke="#777777" d="M652.5,-52C652.5,-52 521.5,-52 521.5,-52 515.5,-52 509.5,-46 509.5,-40 509.5,-40 509.5,-28 509.5,-28 509.5,-22 515.5,-16 521.5,-16 521.5,-16 652.5,-16 652.5,-16 658.5,-16 664.5,-22 664.5,-28 664.5,-28 664.5,-40 664.5,-40 664.5,-46 658.5,-52 652.5,-52"/>
<text text-anchor="middle" x="587" y="-36.8" font-family="Helvetica,sans-Serif" font-size="9.00">NAND 控制器 @0x1FE7_8000</text>
<text text-anchor="middle" x="587" y="-26.8" font-family="Helvetica,sans-Serif" font-size="9.00">(+DMA 引擎 0x1FD0_1160)</text>
</g>
<!-- CC&#45;&gt;NANDc -->
<g id="edge23" class="edge">
<title>CC&#45;&gt;NANDc</title>
<path fill="none" stroke="#40506b" d="M444.13,-106.84C472.53,-92.56 513.14,-72.14 543.8,-56.72"/>
<polygon fill="#40506b" stroke="#40506b" points="545.62,-59.73 552.98,-52.11 542.47,-53.47 545.62,-59.73"/>
</g>
<!-- CONF -->
<g id="node19" class="node">
<title>CONF</title>
<path fill="#eeeeee" stroke="#777777" d="M812,-52C812,-52 702,-52 702,-52 696,-52 690,-46 690,-40 690,-40 690,-28 690,-28 690,-22 696,-16 702,-16 702,-16 812,-16 812,-16 818,-16 824,-22 824,-28 824,-28 824,-40 824,-40 824,-46 818,-52 812,-52"/>
<text text-anchor="middle" x="757" y="-31.8" font-family="Helvetica,sans-Serif" font-size="9.00">CONFREG @0x1FAF_E000</text>
</g>
<!-- CC&#45;&gt;CONF -->
<g id="edge24" class="edge">
<title>CC&#45;&gt;CONF</title>
<path fill="none" stroke="#40506b" d="M483.31,-111.92C562.35,-98.89 677,-80 677,-80 677,-80 697.56,-68.43 717.84,-57.03"/>
<polygon fill="#40506b" stroke="#40506b" points="719.76,-59.97 726.76,-52.01 716.32,-53.86 719.76,-59.97"/>
</g>
</g>
</svg>
